<?xml version="1.0" encoding="utf-8"?><!-- Uploaded to: SVG Repo, www.svgrepo.com, Generator: SVG Repo Mixer Tools -->
<svg fill="#000000" width="800px" height="800px" viewBox="-1.67 0 29.184 29.184" id="_17_-_Direct_Massage" data-name="17 - Direct Massage" xmlns="http://www.w3.org/2000/svg">
  <path id="Path_247" data-name="Path 247" d="M4.43,20.809l8.7.967,3.914,7.829a2,2,0,0,0,3.7-.312L28.414,4.109a2,2,0,0,0-3.06-2.221L3.5,17.183a2,2,0,0,0,.926,3.626ZM26.5,3.526,18.836,28.711l-4.158-8.316a1,1,0,0,0-.784-.547L4.651,18.821,26.5,3.526h0Z" transform="translate(-2.651 -1.527)" fill-rule="evenodd"/>
  <path id="Path_248" data-name="Path 248" d="M19.576,11.252l-6.6,9a1,1,0,0,0,1.613,1.182l6.6-9a1,1,0,0,0-1.613-1.183Z" transform="translate(-2.651 -1.527)" fill-rule="evenodd"/>
</svg>