<?xml version="1.0" encoding="iso-8859-1"?>
<!-- Uploaded to: SVG Repo, www.svgrepo.com, Generator: SVG Repo Mixer Tools -->
<svg fill="#000000" height="800px" width="800px" version="1.1" id="Layer_1" xmlns="http://www.w3.org/2000/svg" xmlns:xlink="http://www.w3.org/1999/xlink" 
	 viewBox="0 0 512 512" xml:space="preserve">
<g>
	<g>
		<polygon points="358.661,150.058 358.661,165.731 358.661,181.405 358.661,350.145 480.653,350.145 496.327,350.145 512,350.145 
			512,150.058 		"/>
	</g>
</g>
<g>
	<g>
		<polygon points="0,150.058 0,350.145 15.673,350.145 31.347,350.145 158.48,350.145 158.48,181.405 158.48,165.731 
			158.48,150.058 		"/>
	</g>
</g>
<g>
	<g>
		<path d="M512,444.709v-63.216h-15.673h-15.673H31.347H15.673H0v63.216h221.78v35.422h-62.955v31.347h194.351v-31.347H290.22
			v-35.422H512z M266.752,413.362v9.561H245.07v-9.561v-12.121h21.682V413.362z"/>
	</g>
</g>
<g>
	<g>
		<polygon points="314.023,150.058 298.35,150.058 218.697,150.058 203.024,150.058 189.827,150.058 189.827,150.674 
			189.827,181.405 189.827,350.145 203.024,350.145 218.697,350.145 298.35,350.145 314.023,350.145 327.314,350.145 
			327.314,181.405 327.314,165.731 327.314,150.674 327.314,150.058 		"/>
	</g>
</g>
<g>
	<g>
		<polygon points="258.529,0.522 191.634,119.327 209.627,119.327 227.61,119.327 289.437,119.327 307.419,119.327 325.413,119.327 
					"/>
	</g>
</g>
</svg>